# Blender v2.83.2 OBJ File: 'ActorModel.blend'
# www.blender.org
mtllib ActorLowerRightLeg.mtl
o ActorLowerRightLeg_Cube.010
v 0.125000 -0.375000 -0.250000
v 0.125000 -0.000000 -0.250000
v 0.125000 -0.375000 0.000000
v 0.125000 -0.000000 0.000000
v -0.125000 -0.375000 -0.250000
v -0.125000 -0.000000 -0.250000
v -0.125000 -0.375000 -0.000000
v -0.125000 -0.000000 -0.000000
v 0.145000 -0.395000 -0.270000
v 0.145000 -0.000000 -0.270000
v 0.145000 -0.395000 0.020000
v 0.145000 -0.000000 0.020000
v -0.145000 -0.395000 -0.270000
v -0.145000 -0.000000 -0.270000
v -0.145000 -0.395000 0.020000
v -0.145000 -0.000000 0.020000
vt 0.187500 0.500000
vt 0.187500 0.593750
vt 0.125000 0.593750
vt 0.125000 0.500000
vt 0.062500 0.593750
vt 0.062500 0.500000
vt 0.000000 0.593750
vt 0.000000 0.500000
vt 0.250000 0.500000
vt 0.250000 0.593750
vt 0.125000 0.750000
vt 0.125000 0.687500
vt 0.187500 0.687500
vt 0.187500 0.750000
vt 0.187500 0.250000
vt 0.187500 0.343750
vt 0.125000 0.343750
vt 0.125000 0.250000
vt 0.062500 0.343750
vt 0.062500 0.250000
vt 0.000000 0.343750
vt 0.000000 0.250000
vt 0.250000 0.250000
vt 0.250000 0.343750
vt 0.125000 0.500000
vt 0.125000 0.437500
vt 0.187500 0.437500
vt 0.187500 0.500000
vn 1.0000 0.0000 0.0000
vn -0.0000 0.0000 1.0000
vn -1.0000 0.0000 -0.0000
vn 0.0000 0.0000 -1.0000
vn 0.0000 -1.0000 0.0000
usemtl Material
s off
f 1/1/1 2/2/1 4/3/1 3/4/1
f 3/4/2 4/3/2 8/5/2 7/6/2
f 7/6/3 8/5/3 6/7/3 5/8/3
f 5/9/4 6/10/4 2/2/4 1/1/4
f 3/11/5 7/12/5 5/13/5 1/14/5
f 9/15/1 10/16/1 12/17/1 11/18/1
f 11/18/2 12/17/2 16/19/2 15/20/2
f 15/20/3 16/19/3 14/21/3 13/22/3
f 13/23/4 14/24/4 10/16/4 9/15/4
f 11/25/5 15/26/5 13/27/5 9/28/5
