# Blender v2.83.2 OBJ File: 'ActorModel.blend'
# www.blender.org
mtllib ActorUpperRightLeg.mtl
o ActorUpperRightLeg_Cube.006
v 0.000000 -0.375000 -0.125000
v 0.000000 -0.000000 -0.125000
v -0.000000 -0.375000 0.125000
v -0.000000 -0.000000 0.125000
v -0.250000 -0.375000 -0.125000
v -0.250000 -0.000000 -0.125000
v -0.250000 -0.375000 0.125000
v -0.250000 -0.000000 0.125000
v 0.020000 -0.375000 -0.145000
v 0.020000 0.020000 -0.145000
v 0.020000 -0.375000 0.145000
v 0.020000 0.020000 0.145000
v -0.270000 -0.375000 -0.145000
v -0.270000 0.020000 -0.145000
v -0.270000 -0.375000 0.145000
v -0.270000 0.020000 0.145000
vt 0.187500 0.593750
vt 0.187500 0.687500
vt 0.125000 0.687500
vt 0.125000 0.593750
vt 0.062500 0.687500
vt 0.062500 0.593750
vt 0.000000 0.687500
vt 0.000000 0.593750
vt 0.250000 0.593750
vt 0.250000 0.687500
vt 0.125000 0.750000
vt 0.062500 0.750000
vt 0.187500 0.343750
vt 0.187500 0.437500
vt 0.125000 0.437500
vt 0.125000 0.343750
vt 0.062500 0.437500
vt 0.062500 0.343750
vt 0.000000 0.437500
vt 0.000000 0.343750
vt 0.250000 0.343750
vt 0.250000 0.437500
vt 0.125000 0.500000
vt 0.062500 0.500000
vn 1.0000 -0.0000 0.0000
vn -0.0000 0.0000 1.0000
vn -1.0000 0.0000 -0.0000
vn 0.0000 0.0000 -1.0000
vn 0.0000 1.0000 0.0000
usemtl Material
s off
f 1/1/1 2/2/1 4/3/1 3/4/1
f 3/4/2 4/3/2 8/5/2 7/6/2
f 7/6/3 8/5/3 6/7/3 5/8/3
f 5/9/4 6/10/4 2/2/4 1/1/4
f 8/5/5 4/3/5 2/11/5 6/12/5
f 9/13/1 10/14/1 12/15/1 11/16/1
f 11/16/2 12/15/2 16/17/2 15/18/2
f 15/18/3 16/17/3 14/19/3 13/20/3
f 13/21/4 14/22/4 10/14/4 9/13/4
f 16/17/5 12/15/5 10/23/5 14/24/5
