# Blender v2.83.2 OBJ File: 'ActorModel.blend'
# www.blender.org
mtllib ActorHead.mtl
o ActorHead_Cube.005
v -0.250000 0.500000 0.250000
v -0.250000 0.000000 0.250000
v -0.250000 0.500000 -0.250000
v -0.250000 0.000000 -0.250000
v 0.250000 0.500000 0.250000
v 0.250000 0.000000 0.250000
v 0.250000 0.500000 -0.250000
v 0.250000 0.000000 -0.250000
v -0.280000 0.530000 0.280000
v -0.280000 -0.030000 0.280000
v -0.280000 0.530000 -0.280000
v -0.280000 -0.030000 -0.280000
v 0.280000 0.530000 0.280000
v 0.280000 -0.030000 0.280000
v 0.280000 0.530000 -0.280000
v 0.280000 -0.030000 -0.280000
vt 0.125000 0.875000
vt 0.250000 0.875000
vt 0.250000 1.000000
vt 0.125000 1.000000
vt 0.500000 0.750000
vt 0.500000 0.875000
vt 0.375000 0.875000
vt 0.375000 0.750000
vt 0.250000 0.750000
vt 0.250000 0.875000
vt 0.375000 0.875000
vt 0.375000 1.000000
vt 0.250000 1.000000
vt 0.125000 0.750000
vt 0.000000 0.875000
vt -0.000000 0.750000
vt 0.625000 0.875000
vt 0.750000 0.875000
vt 0.750000 1.000000
vt 0.625000 1.000000
vt 1.000000 0.750000
vt 1.000000 0.875000
vt 0.875000 0.875000
vt 0.875000 0.750000
vt 0.750000 0.750000
vt 0.750000 0.875000
vt 0.875000 0.875000
vt 0.875000 1.000000
vt 0.750000 1.000000
vt 0.625000 0.750000
vt 0.500000 0.875000
vt 0.500000 0.750000
vn 0.0000 1.0000 0.0000
vn 0.0000 0.0000 -1.0000
vn 1.0000 0.0000 0.0000
vn 0.0000 -1.0000 0.0000
vn -1.0000 0.0000 -0.0000
vn -0.0000 0.0000 1.0000
usemtl Material
s off
f 1/1/1 5/2/1 7/3/1 3/4/1
f 4/5/2 3/6/2 7/7/2 8/8/2
f 8/8/3 7/7/3 5/2/3 6/9/3
f 6/10/4 2/11/4 4/12/4 8/13/4
f 2/14/5 1/1/5 3/15/5 4/16/5
f 6/9/6 5/2/6 1/1/6 2/14/6
f 9/17/1 13/18/1 15/19/1 11/20/1
f 12/21/2 11/22/2 15/23/2 16/24/2
f 16/24/3 15/23/3 13/18/3 14/25/3
f 14/26/4 10/27/4 12/28/4 16/29/4
f 10/30/5 9/17/5 11/31/5 12/32/5
f 14/25/6 13/18/6 9/17/6 10/30/6
